<?xml version="1.0" encoding="UTF-8"?>
<svg width="59px" height="61px" viewBox="0 0 59 61" version="1.1" xmlns="http://www.w3.org/2000/svg" xmlns:xlink="http://www.w3.org/1999/xlink">
    <!-- Generator: Sketch 47.1 (45422) - http://www.bohemiancoding.com/sketch -->
    <title>pictures</title>
    <desc>Created with Sketch.</desc>
    <defs></defs>
    <g id="Stage" stroke="none" stroke-width="1" fill="none" fill-rule="evenodd">
        <g id="Artboard" transform="translate(-418.000000, -117.000000)" fill="#000000">
            <path d="M457.134511,130.365175 L456.366506,121.586848 L422.495887,124.550143 L424.936248,152.443595 L430.926827,151.919487 L429.864824,164.058238 L423.989727,164.572242 C422.889361,164.668512 421.919296,163.854531 421.823026,162.754165 L418.336796,122.906377 C418.240527,121.80601 419.054508,120.835945 420.154874,120.739676 L458.010273,117.427758 C459.110639,117.331488 460.080704,118.145469 460.176974,119.245835 L461.180761,130.719176 L457.134511,130.365175 Z M432.355199,135.593128 C431.699514,135.265213 431.224455,134.614563 431.155875,133.830691 C431.061798,132.755377 431.764555,131.794129 432.774923,131.529982 C432.712775,131.757912 432.670033,131.994558 432.648715,132.238225 L432.355199,135.593128 Z M434.016438,129.561779 C433.636856,129.890102 433.318483,130.28959 433.083222,130.741866 L432.892372,130.758564 C432.57213,130.786581 432.272114,130.598912 432.157197,130.298688 L431.238582,127.89878 C430.913662,127.049918 431.338401,126.098381 432.187263,125.773461 C432.330075,125.718796 432.47981,125.684303 432.632145,125.670975 C433.537608,125.591757 434.33585,126.261561 434.415068,127.167025 C434.428395,127.31936 434.420427,127.472809 434.391392,127.622945 L434.016438,129.561779 Z M439.059581,128.783824 L436.982116,128.602069 C436.518206,128.561482 436.065876,128.601791 435.639054,128.711308 L435.910998,128.102075 C436.281481,127.272086 437.254655,126.899583 438.084644,127.270066 C438.224282,127.332396 438.354551,127.413884 438.471692,127.512177 C438.8624,127.84002 439.062463,128.310761 439.059581,128.783824 Z M427.201036,128.498232 C427.785279,127.801957 428.823344,127.711138 429.519619,128.295382 C429.63676,128.393675 429.739631,128.507815 429.825262,128.634508 L431.264255,130.763524 C431.444271,131.029859 431.425918,131.383261 431.219284,131.629518 L430.982512,131.911692 C430.775878,132.157949 430.431032,132.23739 430.137483,132.106358 L427.790933,131.058926 C426.960945,130.688443 426.588442,129.715268 426.958925,128.88528 C427.021255,128.745642 427.102742,128.615373 427.201036,128.498232 Z M425.359834,134.337779 C425.346506,134.185443 425.354475,134.031994 425.38351,133.881858 C425.55609,132.989471 426.419416,132.405952 427.311803,132.578532 L429.834767,133.066452 C430.150385,133.127489 430.387301,133.390359 430.415318,133.710602 L430.447422,134.077551 C430.47544,134.397794 430.28777,134.69781 429.987546,134.812727 L427.587639,135.731342 C427.444826,135.786007 427.295091,135.8205 427.142756,135.833828 C426.237293,135.913046 425.439051,135.243242 425.359834,134.337779 Z M428.18709,139.768888 C428.069949,139.670595 427.967078,139.556455 427.881447,139.429762 C427.372467,138.676717 427.570321,137.653642 428.323366,137.144662 L430.452382,135.705669 C430.718718,135.525653 431.07212,135.544005 431.318377,135.75064 L431.60055,135.987411 C431.846807,136.194046 431.926248,136.538892 431.795217,136.832441 L430.747785,139.17899 C430.685454,139.318628 430.603967,139.448897 430.505674,139.566038 C429.92143,140.262313 428.883365,140.353132 428.18709,139.768888 Z M436.989727,130.427758 L474.845126,133.739676 C475.945492,133.835945 476.759473,134.80601 476.663204,135.906377 L473.176974,175.754165 C473.080704,176.854531 472.110639,177.668512 471.010273,177.572242 L433.154874,174.260324 C432.054508,174.164055 431.240527,173.19399 431.336796,172.093623 L434.823026,132.245835 C434.919296,131.145469 435.889361,130.331488 436.989727,130.427758 Z M438.633494,134.586848 L436.193133,162.480299 L470.063752,165.443595 L472.504113,137.550143 L438.633494,134.586848 Z M446.613955,146.327066 C444.688314,146.158594 443.263847,144.46098 443.432318,142.535339 C443.60079,140.609698 445.298404,139.185231 447.224045,139.353703 C449.149686,139.522175 447.087471,140.914743 446.919,142.840384 C446.750528,144.766025 448.539596,146.495538 446.613955,146.327066 Z M441.748712,156.190298 L447.277996,152.115764 L450.711129,155.04378 L458.655247,148.261382 C459.075274,147.902778 459.706478,147.952572 460.065081,148.372598 C460.109693,148.424852 460.148801,148.481564 460.181785,148.541835 L465.617731,158.47488 C465.882867,158.95936 465.705053,159.567045 465.220573,159.832181 C465.047386,159.926959 464.850019,159.968353 464.653346,159.951146 L442.254786,157.991526 C441.704603,157.943391 441.297612,157.458359 441.345747,156.908176 C441.370773,156.622127 441.517554,156.360639 441.748712,156.190298 Z" id="pictures"></path>
        </g>
    </g>
</svg>